<svg width="48" height="48" viewBox="0 0 48 48" fill="none" xmlns="http://www.w3.org/2000/svg">
<path d="M21.9988 43C17.2728 41.233 13.3308 35.185 11.3588 31.643C10.5068 30.113 10.9558 28.235 12.3228 27.141C13.0588 26.5525 13.9859 26.256 14.9268 26.3082C15.8678 26.3604 16.7564 26.7577 17.4228 27.424L18.9988 29V17.5C18.9988 16.837 19.2622 16.2011 19.731 15.7322C20.1998 15.2634 20.8357 15 21.4988 15C22.1618 15 22.7977 15.2634 23.2665 15.7322C23.7354 16.2011 23.9988 16.837 23.9988 17.5V23.5C23.9988 22.837 24.2622 22.2011 24.731 21.7322C25.1998 21.2634 25.8357 21 26.4988 21C27.1618 21 27.7977 21.2634 28.2665 21.7322C28.7354 22.2011 28.9988 22.837 28.9988 23.5V25.5C28.9988 24.837 29.2622 24.2011 29.731 23.7322C30.1998 23.2634 30.8357 23 31.4988 23C32.1618 23 32.7977 23.2634 33.2665 23.7322C33.7354 24.2011 33.9988 24.837 33.9988 25.5V27.5C33.9988 26.837 34.2622 26.2011 34.731 25.7322C35.1998 25.2634 35.8357 25 36.4988 25C37.1618 25 37.7977 25.2634 38.2665 25.7322C38.7354 26.2011 38.9988 26.837 38.9988 27.5V35.368C38.9988 36.438 38.7338 37.496 38.1168 38.371C37.0938 39.82 35.2538 42.034 32.9988 43C29.4988 44.5 26.3688 44.634 21.9988 43Z" stroke="black" stroke-width="4" stroke-linecap="round" stroke-linejoin="round"/>
<path d="M28 4L32 8L28 12M10 8H32H10ZM14 12L10 8L14 4V12Z" stroke="black" stroke-width="4" stroke-linecap="round" stroke-linejoin="round"/>
</svg>
